# xmcd
#
# Track frame offsets: 
#        150
#        13701
#        37989
#        49530
#
# Disc length: 1025 seconds
#
# Revision: 0
# Processed by: cddbd v1.5.2PL0 Copyright (c) Steve Scherf et al.
# Submitted via: ExactAudioCopyFreeDBPlugin 1.0
#
DISCID=2403ff04
DTITLE=Chris Thomas King - Les Bleus Made In Louisiana EP
DYEAR=2016
DGENRE=Blues
TTITLE0=Les Bleus Was Born In Louisiana
TTITLE1=I Can Fly
TTITLE2=Cross Road Blues
TTITLE3=Rolling In The Deep
EXTD=
EXTT0=
EXTT1=
EXTT2=
EXTT3=
PLAYORDER=
